<svg width="10" height="15" viewBox="0 0 10 15" fill="none" xmlns="http://www.w3.org/2000/svg">
<path id="Vector" d="M8.43549 14.8489L0.178576 7.86405C0.12197 7.81629 0.0770594 7.75955 0.0464163 7.69707C0.0157733 7.6346 0 7.56763 0 7.5C0 7.43236 0.0157733 7.36539 0.0464163 7.30292C0.0770594 7.24045 0.12197 7.18371 0.178576 7.13595L8.43549 0.151065C8.5205 0.0789671 8.62891 0.0298471 8.74696 0.00993061C8.86501 -0.00998592 8.9874 0.000197411 9.0986 0.0391922C9.2098 0.078186 9.30481 0.144233 9.37159 0.228962C9.43837 0.313691 9.4739 0.413286 9.47368 0.515119L9.47368 14.4849C9.4739 14.5867 9.43837 14.6863 9.37159 14.771C9.30481 14.8558 9.2098 14.9218 9.0986 14.9608C8.9874 14.9998 8.86501 15.01 8.74696 14.9901C8.62891 14.9702 8.5205 14.921 8.43549 14.8489Z" fill="#332012"/>
</svg>
