<svg width="15" height="15" viewBox="0 0 15 15" fill="none" xmlns="http://www.w3.org/2000/svg">
<path id="Vector" d="M2.23707 0.368155L7.50032 5.63141L12.7363 0.395426C12.852 0.272322 12.9913 0.173844 13.1459 0.105895C13.3006 0.037947 13.4673 0.00192851 13.6362 0C13.9979 0 14.3447 0.143658 14.6004 0.399371C14.8561 0.655084 14.9998 1.00191 14.9998 1.36354C15.003 1.53071 14.9719 1.69677 14.9086 1.85152C14.8453 2.00628 14.7511 2.14646 14.6316 2.26347L9.32747 7.49946L14.6316 12.8036C14.8564 13.0235 14.9881 13.3212 14.9998 13.6354C14.9998 13.997 14.8561 14.3438 14.6004 14.5996C14.3447 14.8553 13.9979 14.9989 13.6362 14.9989C13.4625 15.0061 13.2891 14.9771 13.1271 14.9137C12.9652 14.8504 12.8181 14.754 12.6954 14.6308L7.50032 9.36751L2.2507 14.6171C2.13549 14.7361 1.99785 14.8311 1.84573 14.8967C1.69361 14.9622 1.53002 14.9969 1.3644 14.9989C1.00277 14.9989 0.655947 14.8553 0.400234 14.5996C0.144521 14.3438 0.000862726 13.997 0.000862726 13.6354C-0.00231636 13.4682 0.0286999 13.3022 0.0920084 13.1474C0.155317 12.9926 0.249582 12.8525 0.369018 12.7354L5.67318 7.49946L0.369018 2.1953C0.144286 1.97544 0.0125068 1.67771 0.000862726 1.36354C0.000862726 1.00191 0.144521 0.655084 0.400234 0.399371C0.655947 0.143658 1.00277 0 1.3644 0C1.69165 0.00409061 2.00526 0.136354 2.23707 0.368155Z" fill="#332012"/>
</svg>
