<svg width="20" height="11" viewBox="0 0 20 11" fill="none" xmlns="http://www.w3.org/2000/svg">
<path id="Vector" d="M9 10.5H5C3.61667 10.5 2.43767 10.0123 1.463 9.037C0.488333 8.06167 0.000666667 6.88267 0 5.5C0 4.11667 0.487667 2.93767 1.463 1.963C2.43833 0.988334 3.61733 0.500667 5 0.5H9V2.5H5C4.16667 2.5 3.45833 2.79167 2.875 3.375C2.29167 3.95833 2 4.66667 2 5.5C2 6.33333 2.29167 7.04167 2.875 7.625C3.45833 8.20833 4.16667 8.5 5 8.5H9V10.5ZM6 6.5V4.5H14V6.5H6ZM11 10.5V8.5H15C15.8333 8.5 16.5417 8.20833 17.125 7.625C17.7083 7.04167 18 6.33333 18 5.5C18 4.66667 17.7083 3.95833 17.125 3.375C16.5417 2.79167 15.8333 2.5 15 2.5H11V0.5H15C16.3833 0.5 17.5627 0.987667 18.538 1.963C19.5133 2.93833 20.0007 4.11733 20 5.5C20 6.88333 19.5123 8.06267 18.537 9.038C17.5617 10.0133 16.3827 10.5007 15 10.5H11Z" fill="#332012"/>
</svg>
