<?xml version="1.0" encoding="UTF-8"?>
<svg id="Calque_2" data-name="Calque 2" xmlns="http://www.w3.org/2000/svg" viewBox="0 0 1080 1080">
  <defs>
    <style>
      .cls-1 {
        fill: #ff7008;
        stroke-width: 0px;
      }
    </style>
  </defs>
  <g id="Calque_1-2" data-name="Calque 1">
    <g>
      <path class="cls-1" d="M405.93,423.87c-5.58,1.46-10.9,4.31-15.97,8.56-5.07,4.25-7.61,10.17-7.61,17.78s2.98,14.55,8.94,20.06c5.96,5.51,13.75,8.27,23.39,8.27,10.27,0,19.74-2.25,28.43-6.75,8.68-4.5,15.05-10.3,19.11-17.4,4.69-7.86,7.04-20.79,7.04-38.79v-7.42c-7.61,2.79-18.67,5.74-33.18,8.84-14.52,3.11-24.56,5.39-30.14,6.85Z"/>
      <path class="cls-1" d="M429.61,787.96c-10.14,0-19.08,2.64-26.81,7.89-7.73,5.26-13.69,13.02-17.87,23.29s-6.27,22.25-6.27,35.94,2.06,25.42,6.18,35.56c4.12,10.15,10.01,17.9,17.68,23.29,7.67,5.39,16.7,8.08,27.1,8.08,15.72,0,28.24-5.92,37.55-17.78,9.32-11.85,13.98-28.24,13.98-49.15s-4.66-37.65-13.98-49.44c-9.32-11.79-21.84-17.68-37.55-17.68Z"/>
      <path class="cls-1" d="M880,0H200C89.54,0,0,89.54,0,200v680c0,110.46,89.54,200,200,200h680c110.46,0,200-89.54,200-200V200c0-110.46-89.54-200-200-200ZM849.71,233.07c5.2,4.31,7.8,10.58,7.8,18.82s-2.54,14.23-7.61,18.73c-5.07,4.5-11.09,6.75-18.06,6.75s-13.4-2.22-18.54-6.65c-5.13-4.44-7.7-10.71-7.7-18.82,0-7.35,2.63-13.4,7.89-18.16,5.26-4.75,11.38-7.13,18.35-7.13s12.67,2.16,17.87,6.46ZM857.51,330.99v150.02c0,10.39-2.47,18.25-7.42,23.58s-11.22,7.99-18.82,7.99-13.79-2.73-18.54-8.18c-4.75-5.45-7.13-13.24-7.13-23.39v-148.5c0-10.27,2.38-18,7.13-23.2,4.75-5.2,10.93-7.8,18.54-7.8s13.88,2.6,18.82,7.8c4.94,5.2,7.42,12.43,7.42,21.68ZM525.93,153.52c6.32-5.42,15.47-8.13,27.46-8.13h232.48c12.64,0,22.04,2.79,28.2,8.37,6.16,5.58,9.23,12.89,9.23,21.92s-3.12,16.29-9.36,21.79c-6.24,5.5-15.6,8.25-28.07,8.25h-79.79v262.27c0,15.11-3.37,26.31-10.1,33.62-6.73,7.3-15.43,10.96-26.1,10.96s-19.66-3.69-26.47-11.08c-6.81-7.39-10.22-18.55-10.22-33.49V205.73h-79.79c-12.48,0-21.76-2.75-27.83-8.25-6.07-5.5-9.11-12.76-9.11-21.79s3.16-16.75,9.48-22.16ZM484.46,309.22c13.05,5.39,22.28,13.91,27.67,25.57,5.39,11.66,8.08,27.13,8.08,46.39,0,12.17-.03,22.5-.1,30.99-.07,8.49-.16,17.94-.29,28.33,0,9.76,1.62,19.94,4.85,30.52,3.23,10.58,4.85,17.4,4.85,20.44,0,5.32-2.5,10.17-7.51,14.55-5.01,4.37-10.68,6.56-17.02,6.56-5.32,0-10.58-2.5-15.78-7.51-5.2-5.01-10.71-12.26-16.54-21.77-12.55,9.76-24.69,17.08-36.41,21.96-11.73,4.88-24.88,7.32-39.45,7.32-13.31,0-25-2.63-35.08-7.89-10.08-5.26-17.84-12.39-23.29-21.39-5.45-9-8.18-18.76-8.18-29.28,0-14.19,4.5-26.3,13.5-36.32,9-10.01,21.36-16.73,37.08-20.15,3.3-.76,11.47-2.47,24.53-5.13,13.05-2.66,24.24-5.1,33.56-7.32,9.32-2.22,19.42-4.91,30.33-8.08-.64-13.69-3.39-23.74-8.27-30.14-4.88-6.4-14.99-9.6-30.33-9.6-13.19,0-23.1,1.84-29.76,5.51-6.65,3.68-12.36,9.19-17.11,16.54-4.75,7.35-8.11,12.2-10.08,14.55-1.97,2.35-6.18,3.52-12.64,3.52-5.83,0-10.87-1.87-15.12-5.61-4.25-3.74-6.37-8.52-6.37-14.36,0-9.13,3.23-18,9.7-26.62,6.46-8.62,16.54-15.72,30.23-21.3,13.69-5.58,30.74-8.37,51.15-8.37,22.82,0,40.75,2.69,53.81,8.08ZM118.32,153.52c6.32-5.42,15.47-8.13,27.46-8.13h232.48c12.64,0,22.04,2.79,28.2,8.37,6.16,5.58,9.24,12.89,9.24,21.92s-3.12,16.29-9.36,21.79c-6.24,5.5-15.6,8.25-28.07,8.25h-79.79v262.27c0,15.11-3.37,26.31-10.1,33.62-6.73,7.3-15.43,10.96-26.1,10.96s-19.66-3.69-26.47-11.08c-6.81-7.39-10.22-18.55-10.22-33.49V205.73h-79.79c-12.48,0-21.76-2.75-27.83-8.25-6.07-5.5-9.11-12.76-9.11-21.79s3.16-16.75,9.48-22.16ZM298.46,916.04c0,15.11-3.37,26.31-10.1,33.62-6.73,7.3-15.43,10.96-26.1,10.96s-19.66-3.69-26.47-11.08c-6.81-7.39-10.22-18.55-10.22-33.49v-262.27h-79.79c-12.48,0-21.76-2.75-27.83-8.25-6.07-5.5-9.11-12.76-9.11-21.79s3.16-16.75,9.48-22.16c6.32-5.42,15.47-8.13,27.46-8.13h232.48c12.64,0,22.04,2.79,28.2,8.37,6.16,5.58,9.24,12.89,9.24,21.92s-3.12,16.29-9.36,21.79c-6.24,5.5-15.6,8.25-28.07,8.25h-79.79v262.27ZM526.01,897.86c-4.82,13.06-11.79,24.27-20.92,33.65-9.13,9.39-20.03,16.57-32.7,21.58-12.68,5.01-26.94,7.51-42.78,7.51s-29.85-2.54-42.4-7.61c-12.55-5.07-23.42-12.33-32.61-21.77-9.19-9.44-16.16-20.6-20.92-33.46-4.75-12.86-7.13-27.1-7.13-42.69s2.41-30.11,7.23-43.16c4.82-13.05,11.72-24.21,20.73-33.46,9-9.25,19.9-16.38,32.7-21.39,12.8-5.01,26.93-7.51,42.4-7.51s29.98,2.54,42.78,7.61c12.8,5.07,23.77,12.3,32.89,21.68,9.13,9.39,16.07,20.54,20.82,33.46,4.75,12.93,7.13,27.19,7.13,42.78s-2.41,29.73-7.23,42.78ZM706.07,916.04c0,15.11-3.37,26.31-10.1,33.62-6.73,7.3-15.43,10.96-26.1,10.96s-19.66-3.69-26.47-11.08c-6.81-7.39-10.22-18.55-10.22-33.49v-262.27h-79.79c-12.48,0-21.76-2.75-27.83-8.25-6.07-5.5-9.11-12.76-9.11-21.79s3.16-16.75,9.48-22.16c6.32-5.42,15.47-8.13,27.46-8.13h232.48c12.64,0,22.04,2.79,28.2,8.37,6.16,5.58,9.23,12.89,9.23,21.92s-3.12,16.29-9.36,21.79c-6.24,5.5-15.6,8.25-28.07,8.25h-79.79v262.27ZM924.06,930.95c0,9.89-2.25,17.3-6.75,22.25-4.5,4.94-10.3,7.42-17.4,7.42s-12.96-2.57-17.59-7.7c-4.63-5.13-6.94-12.33-6.94-21.58v-6.65c-6.21,7.86-12.74,14.45-19.58,19.77s-14.33,9.29-22.44,11.88c-8.11,2.6-17.37,3.9-27.76,3.9-12.55,0-23.8-2.6-33.75-7.8-9.95-5.2-17.65-12.36-23.1-21.49-6.46-11.03-9.7-26.87-9.7-47.54v-102.87c0-10.39,2.35-18.16,7.04-23.29,4.69-5.13,10.9-7.7,18.63-7.7s14.19,2.6,19.01,7.8c4.82,5.2,7.23,12.93,7.23,23.2v83.09c0,12.05,1.01,22.15,3.04,30.33,2.03,8.18,5.67,14.58,10.93,19.2,5.26,4.63,12.39,6.94,21.39,6.94s16.99-2.59,24.72-7.8c7.73-5.2,13.37-11.98,16.92-20.35,2.92-7.35,4.37-23.45,4.37-48.3v-63.13c0-10.27,2.41-17.99,7.23-23.2,4.82-5.2,11.09-7.8,18.82-7.8s13.94,2.57,18.63,7.7c4.69,5.13,7.04,12.9,7.04,23.29v150.4Z"/>
    </g>
  </g>
</svg>